solid OpenSCAD_Model
  facet normal 0 0 -1
    outer loop
      vertex 0 0 0
      vertex 10 10 0
      vertex 10 0 0
    endloop
  endfacet
  facet normal -0 0 -1
    outer loop
      vertex 10 10 0
      vertex 0 0 0
      vertex 0 10 0
    endloop
  endfacet
  facet normal 1 0 0
    outer loop
      vertex 1 10 10
      vertex 1 7.5 8.5
      vertex 1 10 8
    endloop
  endfacet
  facet normal 1 0 0
    outer loop
      vertex 1 10 10
      vertex 1 5 9
      vertex 1 7.5 8.5
    endloop
  endfacet
  facet normal 1 0 0
    outer loop
      vertex 1 10 10
      vertex 1 2.5 9.5
      vertex 1 5 9
    endloop
  endfacet
  facet normal 1 -0 0
    outer loop
      vertex 1 1 10
      vertex 1 2.5 9.5
      vertex 1 10 10
    endloop
  endfacet
  facet normal 1 0 0
    outer loop
      vertex 1 2.5 9.5
      vertex 1 1 10
      vertex 1 1 9.5
    endloop
  endfacet
  facet normal 1 0 0
    outer loop
      vertex 1 10 8
      vertex 1 7.5 8.5
      vertex 1 7.5 8
    endloop
  endfacet
  facet normal 1 0 0
    outer loop
      vertex 1 7.5 8.5
      vertex 1 5 9
      vertex 1 5 8.5
    endloop
  endfacet
  facet normal 1 0 0
    outer loop
      vertex 1 5 9
      vertex 1 2.5 9.5
      vertex 1 2.5 9
    endloop
  endfacet
  facet normal -1 0 0
    outer loop
      vertex 0 0 0
      vertex 0 10 10
      vertex 0 10 0
    endloop
  endfacet
  facet normal -1 -0 0
    outer loop
      vertex 0 10 10
      vertex 0 0 0
      vertex 0 0 10
    endloop
  endfacet
  facet normal 0 -1 0
    outer loop
      vertex 0 0 0
      vertex 10 0 10
      vertex 0 0 10
    endloop
  endfacet
  facet normal 0 -1 -0
    outer loop
      vertex 10 0 10
      vertex 0 0 0
      vertex 10 0 0
    endloop
  endfacet
  facet normal 0 1 0
    outer loop
      vertex 10 10 8
      vertex 10 10 0
      vertex 1 10 8
    endloop
  endfacet
  facet normal 0 1 -0
    outer loop
      vertex 1 10 8
      vertex 0 10 10
      vertex 1 10 10
    endloop
  endfacet
  facet normal 0 1 0
    outer loop
      vertex 1 10 8
      vertex 0 10 0
      vertex 0 10 10
    endloop
  endfacet
  facet normal 0 1 0
    outer loop
      vertex 0 10 0
      vertex 1 10 8
      vertex 10 10 0
    endloop
  endfacet
  facet normal 0 0 1
    outer loop
      vertex 1 10 10
      vertex 0 10 10
      vertex 1 1 10
    endloop
  endfacet
  facet normal -0 0 1
    outer loop
      vertex 1 1 10
      vertex 10 0 10
      vertex 10 1 10
    endloop
  endfacet
  facet normal 0 0 1
    outer loop
      vertex 1 1 10
      vertex 0 0 10
      vertex 10 0 10
    endloop
  endfacet
  facet normal 0 0 1
    outer loop
      vertex 0 0 10
      vertex 1 1 10
      vertex 0 10 10
    endloop
  endfacet
  facet normal 0 1 -0
    outer loop
      vertex 10 1 9.5
      vertex 1 1 10
      vertex 10 1 10
    endloop
  endfacet
  facet normal 0 1 0
    outer loop
      vertex 1 1 10
      vertex 10 1 9.5
      vertex 1 1 9.5
    endloop
  endfacet
  facet normal 1 0 0
    outer loop
      vertex 10 1 10
      vertex 10 0 10
      vertex 10 1 9.5
    endloop
  endfacet
  facet normal 1 0 0
    outer loop
      vertex 10 2.5 9.5
      vertex 10 1 9.5
      vertex 10 2.5 9
    endloop
  endfacet
  facet normal 1 0 0
    outer loop
      vertex 10 5 9
      vertex 10 2.5 9
      vertex 10 5 8.5
    endloop
  endfacet
  facet normal 1 0 0
    outer loop
      vertex 10 7.5 8.5
      vertex 10 5 8.5
      vertex 10 7.5 8
    endloop
  endfacet
  facet normal 1 -0 0
    outer loop
      vertex 10 7.5 8
      vertex 10 10 0
      vertex 10 10 8
    endloop
  endfacet
  facet normal 1 0 0
    outer loop
      vertex 10 5 8.5
      vertex 10 10 0
      vertex 10 7.5 8
    endloop
  endfacet
  facet normal 1 0 0
    outer loop
      vertex 10 0 0
      vertex 10 5 8.5
      vertex 10 2.5 9
    endloop
  endfacet
  facet normal 1 0 0
    outer loop
      vertex 10 0 0
      vertex 10 2.5 9
      vertex 10 1 9.5
    endloop
  endfacet
  facet normal 1 0 0
    outer loop
      vertex 10 0 0
      vertex 10 1 9.5
      vertex 10 0 10
    endloop
  endfacet
  facet normal 1 0 0
    outer loop
      vertex 10 5 8.5
      vertex 10 0 0
      vertex 10 10 0
    endloop
  endfacet
  facet normal 0 1 -0
    outer loop
      vertex 10 2.5 9
      vertex 1 2.5 9.5
      vertex 10 2.5 9.5
    endloop
  endfacet
  facet normal 0 1 0
    outer loop
      vertex 1 2.5 9.5
      vertex 10 2.5 9
      vertex 1 2.5 9
    endloop
  endfacet
  facet normal -0 0 1
    outer loop
      vertex 1 2.5 9.5
      vertex 10 1 9.5
      vertex 10 2.5 9.5
    endloop
  endfacet
  facet normal 0 0 1
    outer loop
      vertex 10 1 9.5
      vertex 1 2.5 9.5
      vertex 1 1 9.5
    endloop
  endfacet
  facet normal 0 1 -0
    outer loop
      vertex 10 5 8.5
      vertex 1 5 9
      vertex 10 5 9
    endloop
  endfacet
  facet normal 0 1 0
    outer loop
      vertex 1 5 9
      vertex 10 5 8.5
      vertex 1 5 8.5
    endloop
  endfacet
  facet normal -0 0 1
    outer loop
      vertex 1 5 9
      vertex 10 2.5 9
      vertex 10 5 9
    endloop
  endfacet
  facet normal 0 0 1
    outer loop
      vertex 10 2.5 9
      vertex 1 5 9
      vertex 1 2.5 9
    endloop
  endfacet
  facet normal 0 1 -0
    outer loop
      vertex 10 7.5 8
      vertex 1 7.5 8.5
      vertex 10 7.5 8.5
    endloop
  endfacet
  facet normal 0 1 0
    outer loop
      vertex 1 7.5 8.5
      vertex 10 7.5 8
      vertex 1 7.5 8
    endloop
  endfacet
  facet normal -0 0 1
    outer loop
      vertex 1 7.5 8.5
      vertex 10 5 8.5
      vertex 10 7.5 8.5
    endloop
  endfacet
  facet normal 0 0 1
    outer loop
      vertex 10 5 8.5
      vertex 1 7.5 8.5
      vertex 1 5 8.5
    endloop
  endfacet
  facet normal -0 0 1
    outer loop
      vertex 1 10 8
      vertex 10 7.5 8
      vertex 10 10 8
    endloop
  endfacet
  facet normal 0 0 1
    outer loop
      vertex 10 7.5 8
      vertex 1 10 8
      vertex 1 7.5 8
    endloop
  endfacet
endsolid OpenSCAD_Model
