solid OpenSCAD_Model
  facet normal 1 0 0
    outer loop
      vertex -14.5 34.22 16
      vertex -14.5 23.925 14.95
      vertex -14.5 34.22 1
    endloop
  endfacet
  facet normal 1 -0 0
    outer loop
      vertex -14.5 14.5 16
      vertex -14.5 23.925 14.95
      vertex -14.5 34.22 16
    endloop
  endfacet
  facet normal 1 0 0
    outer loop
      vertex -14.5 23.925 14.95
      vertex -14.5 14.5 16
      vertex -14.5 16.575 14.95
    endloop
  endfacet
  facet normal 1 0 0
    outer loop
      vertex -14.5 14.5 1
      vertex -14.5 16.575 14.95
      vertex -14.5 14.5 16
    endloop
  endfacet
  facet normal 1 0 0
    outer loop
      vertex -14.5 16.575 14.95
      vertex -14.5 14.5 1
      vertex -14.5 16.575 1
    endloop
  endfacet
  facet normal 1 0 0
    outer loop
      vertex -14.5 34.22 1
      vertex -14.5 23.925 14.95
      vertex -14.5 23.925 1
    endloop
  endfacet
  facet normal -1 0 0
    outer loop
      vertex 14.5 16.575 1
      vertex 14.5 14.5 1
      vertex 14.5 16.575 14.95
    endloop
  endfacet
  facet normal -1 0 0
    outer loop
      vertex 14.5 23.925 14.95
      vertex 14.5 34.22 1
      vertex 14.5 23.925 1
    endloop
  endfacet
  facet normal -1 0 0
    outer loop
      vertex 14.5 34.22 1
      vertex 14.5 23.925 14.95
      vertex 14.5 34.22 16
    endloop
  endfacet
  facet normal -1 0 0
    outer loop
      vertex 14.5 14.5 16
      vertex 14.5 23.925 14.95
      vertex 14.5 16.575 14.95
    endloop
  endfacet
  facet normal -1 0 0
    outer loop
      vertex 14.5 23.925 14.95
      vertex 14.5 14.5 16
      vertex 14.5 34.22 16
    endloop
  endfacet
  facet normal -1 0 0
    outer loop
      vertex 14.5 14.5 16
      vertex 14.5 16.575 14.95
      vertex 14.5 14.5 1
    endloop
  endfacet
  facet normal 0 -1 0
    outer loop
      vertex -14.5 34.22 1
      vertex 14.5 34.22 16
      vertex -14.5 34.22 16
    endloop
  endfacet
  facet normal 0 -1 -0
    outer loop
      vertex 14.5 34.22 16
      vertex -14.5 34.22 1
      vertex 14.5 34.22 1
    endloop
  endfacet
  facet normal 0 0 1
    outer loop
      vertex 14.5 34.22 1
      vertex 10 23.925 1
      vertex 14.5 23.925 1
    endloop
  endfacet
  facet normal 0 0 1
    outer loop
      vertex -10 16.575 1
      vertex 10 16.575 1
      vertex 10 23.925 1
    endloop
  endfacet
  facet normal 0 -0 1
    outer loop
      vertex 0.910462 0.0286121 1
      vertex 10 16.575 1
      vertex -10 16.575 1
    endloop
  endfacet
  facet normal 0 0 1
    outer loop
      vertex 10 16.575 1
      vertex 9.24265 3.32756 1
      vertex 9.92593 3.92995 1
    endloop
  endfacet
  facet normal 0 0 1
    outer loop
      vertex 10 16.575 1
      vertex 8.52289 2.76925 1
      vertex 9.24265 3.32756 1
    endloop
  endfacet
  facet normal 0 0 1
    outer loop
      vertex 10 16.575 1
      vertex 7.76949 2.25725 1
      vertex 8.52289 2.76925 1
    endloop
  endfacet
  facet normal 0 0 1
    outer loop
      vertex 10 16.575 1
      vertex 6.98543 1.79355 1
      vertex 7.76949 2.25725 1
    endloop
  endfacet
  facet normal 0 0 1
    outer loop
      vertex 10 16.575 1
      vertex 6.1738 1.38001 1
      vertex 6.98543 1.79355 1
    endloop
  endfacet
  facet normal 0 0 1
    outer loop
      vertex 10 16.575 1
      vertex 5.33781 1.01824 1
      vertex 6.1738 1.38001 1
    endloop
  endfacet
  facet normal 0 0 1
    outer loop
      vertex 10 16.575 1
      vertex 4.48075 0.70968 1
      vertex 5.33781 1.01824 1
    endloop
  endfacet
  facet normal 0 0 1
    outer loop
      vertex 10 16.575 1
      vertex 3.606 0.455544 1
      vertex 4.48075 0.70968 1
    endloop
  endfacet
  facet normal 0 0 1
    outer loop
      vertex 10 16.575 1
      vertex 2.71703 0.256834 1
      vertex 3.606 0.455544 1
    endloop
  endfacet
  facet normal 0 0 1
    outer loop
      vertex 10 16.575 1
      vertex 1.81733 0.114336 1
      vertex 2.71703 0.256834 1
    endloop
  endfacet
  facet normal 0 0 1
    outer loop
      vertex 10 16.575 1
      vertex 0.910462 0.0286121 1
      vertex 1.81733 0.114336 1
    endloop
  endfacet
  facet normal 0 0 1
    outer loop
      vertex 0.910462 0.0286121 1
      vertex -10 16.575 1
      vertex 6.4598e-015 0 1
    endloop
  endfacet
  facet normal 0 0 1
    outer loop
      vertex -10 23.925 1
      vertex 10 23.925 1
      vertex 14.5 34.22 1
    endloop
  endfacet
  facet normal 0 0 1
    outer loop
      vertex 6.4598e-015 0 1
      vertex -10 16.575 1
      vertex -0.910462 0.0286121 1
    endloop
  endfacet
  facet normal 0 0 1
    outer loop
      vertex -0.910462 0.0286121 1
      vertex -10 16.575 1
      vertex -1.81733 0.114336 1
    endloop
  endfacet
  facet normal 0 0 1
    outer loop
      vertex -1.81733 0.114336 1
      vertex -10 16.575 1
      vertex -2.71703 0.256834 1
    endloop
  endfacet
  facet normal 0 0 1
    outer loop
      vertex -2.71703 0.256834 1
      vertex -10 16.575 1
      vertex -3.606 0.455544 1
    endloop
  endfacet
  facet normal 0 0 1
    outer loop
      vertex -3.606 0.455544 1
      vertex -10 16.575 1
      vertex -4.48075 0.70968 1
    endloop
  endfacet
  facet normal 0 0 1
    outer loop
      vertex -4.48075 0.70968 1
      vertex -10 16.575 1
      vertex -5.33781 1.01824 1
    endloop
  endfacet
  facet normal 0 0 1
    outer loop
      vertex -5.33781 1.01824 1
      vertex -10 16.575 1
      vertex -6.1738 1.38001 1
    endloop
  endfacet
  facet normal 0 0 1
    outer loop
      vertex -6.1738 1.38001 1
      vertex -10 16.575 1
      vertex -6.98543 1.79355 1
    endloop
  endfacet
  facet normal 0 0 1
    outer loop
      vertex -6.98543 1.79355 1
      vertex -10 16.575 1
      vertex -7.76949 2.25725 1
    endloop
  endfacet
  facet normal 0 0 1
    outer loop
      vertex -7.76949 2.25725 1
      vertex -10 16.575 1
      vertex -8.52289 2.76925 1
    endloop
  endfacet
  facet normal 0 0 1
    outer loop
      vertex -8.52289 2.76925 1
      vertex -10 16.575 1
      vertex -9.24265 3.32756 1
    endloop
  endfacet
  facet normal 0 0 1
    outer loop
      vertex 10 23.925 1
      vertex -10 23.925 1
      vertex -10 16.575 1
    endloop
  endfacet
  facet normal -0 0 1
    outer loop
      vertex -14.5 34.22 1
      vertex -10 23.925 1
      vertex 14.5 34.22 1
    endloop
  endfacet
  facet normal 0 0 1
    outer loop
      vertex -10 23.925 1
      vertex -14.5 34.22 1
      vertex -14.5 23.925 1
    endloop
  endfacet
  facet normal -0 0 1
    outer loop
      vertex 10 16.575 1
      vertex 14.5 14.5 1
      vertex 14.5 16.575 1
    endloop
  endfacet
  facet normal 0 0 1
    outer loop
      vertex 14.5 14.5 1
      vertex 10 16.575 1
      vertex 14.4714 13.5895 1
    endloop
  endfacet
  facet normal 0 0 1
    outer loop
      vertex 14.4714 13.5895 1
      vertex 10 16.575 1
      vertex 14.3857 12.6827 1
    endloop
  endfacet
  facet normal 0 0 1
    outer loop
      vertex 14.3857 12.6827 1
      vertex 10 16.575 1
      vertex 14.2432 11.783 1
    endloop
  endfacet
  facet normal 0 0 1
    outer loop
      vertex 14.2432 11.783 1
      vertex 10 16.575 1
      vertex 14.0445 10.894 1
    endloop
  endfacet
  facet normal 0 0 1
    outer loop
      vertex 14.0445 10.894 1
      vertex 10 16.575 1
      vertex 13.7903 10.0193 1
    endloop
  endfacet
  facet normal 0 0 1
    outer loop
      vertex 13.7903 10.0193 1
      vertex 10 16.575 1
      vertex 13.4818 9.16219 1
    endloop
  endfacet
  facet normal 0 0 1
    outer loop
      vertex 13.4818 9.16219 1
      vertex 10 16.575 1
      vertex 13.12 8.3262 1
    endloop
  endfacet
  facet normal 0 0 1
    outer loop
      vertex 13.12 8.3262 1
      vertex 10 16.575 1
      vertex 12.7064 7.51457 1
    endloop
  endfacet
  facet normal 0 0 1
    outer loop
      vertex 12.7064 7.51457 1
      vertex 10 16.575 1
      vertex 12.2428 6.73051 1
    endloop
  endfacet
  facet normal 0 0 1
    outer loop
      vertex 12.2428 6.73051 1
      vertex 10 16.575 1
      vertex 11.7307 5.97711 1
    endloop
  endfacet
  facet normal 0 0 1
    outer loop
      vertex 11.7307 5.97711 1
      vertex 10 16.575 1
      vertex 11.1724 5.25735 1
    endloop
  endfacet
  facet normal 0 0 1
    outer loop
      vertex 11.1724 5.25735 1
      vertex 10 16.575 1
      vertex 10.57 4.57407 1
    endloop
  endfacet
  facet normal 0 0 1
    outer loop
      vertex 10.57 4.57407 1
      vertex 10 16.575 1
      vertex 9.92593 3.92995 1
    endloop
  endfacet
  facet normal 0 0 1
    outer loop
      vertex -9.24265 3.32756 1
      vertex -10 16.575 1
      vertex -9.92593 3.92995 1
    endloop
  endfacet
  facet normal 0 0 1
    outer loop
      vertex -10 16.575 1
      vertex -10.57 4.57407 1
      vertex -9.92593 3.92995 1
    endloop
  endfacet
  facet normal 0 0 1
    outer loop
      vertex -10 16.575 1
      vertex -11.1724 5.25735 1
      vertex -10.57 4.57407 1
    endloop
  endfacet
  facet normal 0 0 1
    outer loop
      vertex -10 16.575 1
      vertex -11.7307 5.97711 1
      vertex -11.1724 5.25735 1
    endloop
  endfacet
  facet normal 0 0 1
    outer loop
      vertex -10 16.575 1
      vertex -12.2428 6.73051 1
      vertex -11.7307 5.97711 1
    endloop
  endfacet
  facet normal 0 0 1
    outer loop
      vertex -10 16.575 1
      vertex -12.7064 7.51457 1
      vertex -12.2428 6.73051 1
    endloop
  endfacet
  facet normal 0 0 1
    outer loop
      vertex -10 16.575 1
      vertex -13.12 8.3262 1
      vertex -12.7064 7.51457 1
    endloop
  endfacet
  facet normal 0 0 1
    outer loop
      vertex -10 16.575 1
      vertex -13.4818 9.16219 1
      vertex -13.12 8.3262 1
    endloop
  endfacet
  facet normal 0 0 1
    outer loop
      vertex -10 16.575 1
      vertex -13.7903 10.0193 1
      vertex -13.4818 9.16219 1
    endloop
  endfacet
  facet normal 0 0 1
    outer loop
      vertex -10 16.575 1
      vertex -14.0445 10.894 1
      vertex -13.7903 10.0193 1
    endloop
  endfacet
  facet normal 0 0 1
    outer loop
      vertex -10 16.575 1
      vertex -14.2432 11.783 1
      vertex -14.0445 10.894 1
    endloop
  endfacet
  facet normal 0 0 1
    outer loop
      vertex -10 16.575 1
      vertex -14.3857 12.6827 1
      vertex -14.2432 11.783 1
    endloop
  endfacet
  facet normal 0 0 1
    outer loop
      vertex -10 16.575 1
      vertex -14.4714 13.5895 1
      vertex -14.3857 12.6827 1
    endloop
  endfacet
  facet normal 0 0 1
    outer loop
      vertex -14.5 14.5 1
      vertex -10 16.575 1
      vertex -14.5 16.575 1
    endloop
  endfacet
  facet normal 0 0 1
    outer loop
      vertex -10 16.575 1
      vertex -14.5 14.5 1
      vertex -14.4714 13.5895 1
    endloop
  endfacet
  facet normal 0.0314104 0.999507 3.84654e-018
    outer loop
      vertex 6.4598e-015 0 1
      vertex -0.910462 0.0286121 16
      vertex 4.62289e-015 0 16
    endloop
  endfacet
  facet normal 0.0314104 0.999507 0
    outer loop
      vertex -0.910462 0.0286121 16
      vertex 6.4598e-015 0 1
      vertex -0.910462 0.0286121 1
    endloop
  endfacet
  facet normal -0.975917 0.218143 0
    outer loop
      vertex 14.0445 10.894 1
      vertex 14.2432 11.783 16
      vertex 14.2432 11.783 1
    endloop
  endfacet
  facet normal -0.975917 0.218143 0
    outer loop
      vertex 14.2432 11.783 16
      vertex 14.0445 10.894 1
      vertex 14.0445 10.894 16
    endloop
  endfacet
  facet normal 0.218143 0.975917 -0
    outer loop
      vertex -2.71703 0.256834 1
      vertex -3.606 0.455544 16
      vertex -2.71703 0.256834 16
    endloop
  endfacet
  facet normal 0.218143 0.975917 0
    outer loop
      vertex -3.606 0.455544 16
      vertex -2.71703 0.256834 1
      vertex -3.606 0.455544 1
    endloop
  endfacet
  facet normal 0.0941078 0.995562 -0
    outer loop
      vertex -0.910462 0.0286121 1
      vertex -1.81733 0.114336 16
      vertex -0.910462 0.0286121 16
    endloop
  endfacet
  facet normal 0.0941078 0.995562 0
    outer loop
      vertex -1.81733 0.114336 16
      vertex -0.910462 0.0286121 1
      vertex -1.81733 0.114336 1
    endloop
  endfacet
  facet normal 0.278991 0.960294 -0
    outer loop
      vertex -3.606 0.455544 1
      vertex -4.48075 0.70968 16
      vertex -3.606 0.455544 16
    endloop
  endfacet
  facet normal 0.278991 0.960294 0
    outer loop
      vertex -4.48075 0.70968 16
      vertex -3.606 0.455544 1
      vertex -4.48075 0.70968 1
    endloop
  endfacet
  facet normal 0.562083 0.827081 -0
    outer loop
      vertex -7.76949 2.25725 1
      vertex -8.52289 2.76925 16
      vertex -7.76949 2.25725 16
    endloop
  endfacet
  facet normal 0.562083 0.827081 0
    outer loop
      vertex -8.52289 2.76925 16
      vertex -7.76949 2.25725 1
      vertex -8.52289 2.76925 1
    endloop
  endfacet
  facet normal 0.453991 0.891006 -0
    outer loop
      vertex -6.1738 1.38001 1
      vertex -6.98543 1.79355 16
      vertex -6.1738 1.38001 16
    endloop
  endfacet
  facet normal 0.453991 0.891006 0
    outer loop
      vertex -6.98543 1.79355 16
      vertex -6.1738 1.38001 1
      vertex -6.98543 1.79355 1
    endloop
  endfacet
  facet normal 0.891006 0.453991 0
    outer loop
      vertex -12.7064 7.51457 16
      vertex -13.12 8.3262 1
      vertex -13.12 8.3262 16
    endloop
  endfacet
  facet normal 0.891006 0.453991 0
    outer loop
      vertex -13.12 8.3262 1
      vertex -12.7064 7.51457 16
      vertex -12.7064 7.51457 1
    endloop
  endfacet
  facet normal -0.509042 0.860742 0
    outer loop
      vertex 7.76949 2.25725 1
      vertex 6.98543 1.79355 16
      vertex 7.76949 2.25725 16
    endloop
  endfacet
  facet normal -0.509042 0.860742 0
    outer loop
      vertex 6.98543 1.79355 16
      vertex 7.76949 2.25725 1
      vertex 6.98543 1.79355 1
    endloop
  endfacet
  facet normal -0.453991 0.891006 0
    outer loop
      vertex 6.98543 1.79355 1
      vertex 6.1738 1.38001 16
      vertex 6.98543 1.79355 16
    endloop
  endfacet
  facet normal -0.453991 0.891006 0
    outer loop
      vertex 6.1738 1.38001 16
      vertex 6.98543 1.79355 1
      vertex 6.1738 1.38001 1
    endloop
  endfacet
  facet normal -0.0941078 0.995562 0
    outer loop
      vertex 1.81733 0.114336 1
      vertex 0.910462 0.0286121 16
      vertex 1.81733 0.114336 16
    endloop
  endfacet
  facet normal -0.0941078 0.995562 0
    outer loop
      vertex 0.910462 0.0286121 16
      vertex 1.81733 0.114336 1
      vertex 0.910462 0.0286121 1
    endloop
  endfacet
  facet normal -0.891006 0.453991 0
    outer loop
      vertex 12.7064 7.51457 1
      vertex 13.12 8.3262 16
      vertex 13.12 8.3262 1
    endloop
  endfacet
  facet normal -0.891006 0.453991 0
    outer loop
      vertex 13.12 8.3262 16
      vertex 12.7064 7.51457 1
      vertex 12.7064 7.51457 16
    endloop
  endfacet
  facet normal -0.960294 0.278991 0
    outer loop
      vertex 13.7903 10.0193 1
      vertex 14.0445 10.894 16
      vertex 14.0445 10.894 1
    endloop
  endfacet
  facet normal -0.960294 0.278991 0
    outer loop
      vertex 14.0445 10.894 16
      vertex 13.7903 10.0193 1
      vertex 13.7903 10.0193 16
    endloop
  endfacet
  facet normal -0.995562 0.0941078 0
    outer loop
      vertex 14.3857 12.6827 1
      vertex 14.4714 13.5895 16
      vertex 14.4714 13.5895 1
    endloop
  endfacet
  facet normal -0.995562 0.0941078 0
    outer loop
      vertex 14.4714 13.5895 16
      vertex 14.3857 12.6827 1
      vertex 14.3857 12.6827 16
    endloop
  endfacet
  facet normal -0.999507 0.0314114 0
    outer loop
      vertex 14.4714 13.5895 1
      vertex 14.5 14.5 16
      vertex 14.5 14.5 1
    endloop
  endfacet
  facet normal -0.999507 0.0314114 0
    outer loop
      vertex 14.5 14.5 16
      vertex 14.4714 13.5895 1
      vertex 14.4714 13.5895 16
    endloop
  endfacet
  facet normal 0.999507 0.0314114 0
    outer loop
      vertex -14.4714 13.5895 16
      vertex -14.5 14.5 1
      vertex -14.5 14.5 16
    endloop
  endfacet
  facet normal 0.999507 0.0314114 0
    outer loop
      vertex -14.5 14.5 1
      vertex -14.4714 13.5895 16
      vertex -14.4714 13.5895 1
    endloop
  endfacet
  facet normal 0.156434 0.987688 -0
    outer loop
      vertex -1.81733 0.114336 1
      vertex -2.71703 0.256834 16
      vertex -1.81733 0.114336 16
    endloop
  endfacet
  facet normal 0.156434 0.987688 0
    outer loop
      vertex -2.71703 0.256834 16
      vertex -1.81733 0.114336 1
      vertex -2.71703 0.256834 1
    endloop
  endfacet
  facet normal 0.338739 0.94088 -0
    outer loop
      vertex -4.48075 0.70968 1
      vertex -5.33781 1.01824 16
      vertex -4.48075 0.70968 16
    endloop
  endfacet
  facet normal 0.338739 0.94088 0
    outer loop
      vertex -5.33781 1.01824 16
      vertex -4.48075 0.70968 1
      vertex -5.33781 1.01824 1
    endloop
  endfacet
  facet normal 0.612907 0.790155 -0
    outer loop
      vertex -8.52289 2.76925 1
      vertex -9.24265 3.32756 16
      vertex -8.52289 2.76925 16
    endloop
  endfacet
  facet normal 0.612907 0.790155 0
    outer loop
      vertex -9.24265 3.32756 16
      vertex -8.52289 2.76925 1
      vertex -9.24265 3.32756 1
    endloop
  endfacet
  facet normal 0.707107 0.707107 0
    outer loop
      vertex -9.92593 3.92995 16
      vertex -10.57 4.57407 1
      vertex -10.57 4.57407 16
    endloop
  endfacet
  facet normal 0.707107 0.707107 0
    outer loop
      vertex -10.57 4.57407 1
      vertex -9.92593 3.92995 16
      vertex -9.92593 3.92995 1
    endloop
  endfacet
  facet normal 0.509042 0.860742 -0
    outer loop
      vertex -6.98543 1.79355 1
      vertex -7.76949 2.25725 16
      vertex -6.98543 1.79355 16
    endloop
  endfacet
  facet normal 0.509042 0.860742 0
    outer loop
      vertex -7.76949 2.25725 16
      vertex -6.98543 1.79355 1
      vertex -7.76949 2.25725 1
    endloop
  endfacet
  facet normal 0.750111 0.661312 0
    outer loop
      vertex -10.57 4.57407 16
      vertex -11.1724 5.25735 1
      vertex -11.1724 5.25735 16
    endloop
  endfacet
  facet normal 0.750111 0.661312 0
    outer loop
      vertex -11.1724 5.25735 1
      vertex -10.57 4.57407 16
      vertex -10.57 4.57407 1
    endloop
  endfacet
  facet normal 0.827081 0.562083 0
    outer loop
      vertex -11.7307 5.97711 16
      vertex -12.2428 6.73051 1
      vertex -12.2428 6.73051 16
    endloop
  endfacet
  facet normal 0.827081 0.562083 0
    outer loop
      vertex -12.2428 6.73051 1
      vertex -11.7307 5.97711 16
      vertex -11.7307 5.97711 1
    endloop
  endfacet
  facet normal 0.917755 0.397147 0
    outer loop
      vertex -13.12 8.3262 16
      vertex -13.4818 9.16219 1
      vertex -13.4818 9.16219 16
    endloop
  endfacet
  facet normal 0.917755 0.397147 0
    outer loop
      vertex -13.4818 9.16219 1
      vertex -13.12 8.3262 16
      vertex -13.12 8.3262 1
    endloop
  endfacet
  facet normal 0.987688 0.156434 0
    outer loop
      vertex -14.2432 11.783 16
      vertex -14.3857 12.6827 1
      vertex -14.3857 12.6827 16
    endloop
  endfacet
  facet normal 0.987688 0.156434 0
    outer loop
      vertex -14.3857 12.6827 1
      vertex -14.2432 11.783 16
      vertex -14.2432 11.783 1
    endloop
  endfacet
  facet normal 0.960294 0.278991 0
    outer loop
      vertex -13.7903 10.0193 16
      vertex -14.0445 10.894 1
      vertex -14.0445 10.894 16
    endloop
  endfacet
  facet normal 0.960294 0.278991 0
    outer loop
      vertex -14.0445 10.894 1
      vertex -13.7903 10.0193 16
      vertex -13.7903 10.0193 1
    endloop
  endfacet
  facet normal -0.661312 0.750111 0
    outer loop
      vertex 9.92593 3.92995 1
      vertex 9.24265 3.32756 16
      vertex 9.92593 3.92995 16
    endloop
  endfacet
  facet normal -0.661312 0.750111 0
    outer loop
      vertex 9.24265 3.32756 16
      vertex 9.92593 3.92995 1
      vertex 9.24265 3.32756 1
    endloop
  endfacet
  facet normal -0.562083 0.827081 0
    outer loop
      vertex 8.52289 2.76925 1
      vertex 7.76949 2.25725 16
      vertex 8.52289 2.76925 16
    endloop
  endfacet
  facet normal -0.562083 0.827081 0
    outer loop
      vertex 7.76949 2.25725 16
      vertex 8.52289 2.76925 1
      vertex 7.76949 2.25725 1
    endloop
  endfacet
  facet normal -0.397147 0.917755 0
    outer loop
      vertex 6.1738 1.38001 1
      vertex 5.33781 1.01824 16
      vertex 6.1738 1.38001 16
    endloop
  endfacet
  facet normal -0.397147 0.917755 0
    outer loop
      vertex 5.33781 1.01824 16
      vertex 6.1738 1.38001 1
      vertex 5.33781 1.01824 1
    endloop
  endfacet
  facet normal -0.278991 0.960294 0
    outer loop
      vertex 4.48075 0.70968 1
      vertex 3.606 0.455544 16
      vertex 4.48075 0.70968 16
    endloop
  endfacet
  facet normal -0.278991 0.960294 0
    outer loop
      vertex 3.606 0.455544 16
      vertex 4.48075 0.70968 1
      vertex 3.606 0.455544 1
    endloop
  endfacet
  facet normal -0.156434 0.987688 0
    outer loop
      vertex 2.71703 0.256834 1
      vertex 1.81733 0.114336 16
      vertex 2.71703 0.256834 16
    endloop
  endfacet
  facet normal -0.156434 0.987688 0
    outer loop
      vertex 1.81733 0.114336 16
      vertex 2.71703 0.256834 1
      vertex 1.81733 0.114336 1
    endloop
  endfacet
  facet normal -0.0314104 0.999507 0
    outer loop
      vertex 0.910462 0.0286121 1
      vertex 4.62289e-015 0 16
      vertex 0.910462 0.0286121 16
    endloop
  endfacet
  facet normal -0.0314104 0.999507 -3.84654e-018
    outer loop
      vertex 4.62289e-015 0 16
      vertex 0.910462 0.0286121 1
      vertex 6.4598e-015 0 1
    endloop
  endfacet
  facet normal -0.860742 0.509042 0
    outer loop
      vertex 12.2428 6.73051 1
      vertex 12.7064 7.51457 16
      vertex 12.7064 7.51457 1
    endloop
  endfacet
  facet normal -0.860742 0.509042 0
    outer loop
      vertex 12.7064 7.51457 16
      vertex 12.2428 6.73051 1
      vertex 12.2428 6.73051 16
    endloop
  endfacet
  facet normal -0.790155 0.612907 0
    outer loop
      vertex 11.1724 5.25735 1
      vertex 11.7307 5.97711 16
      vertex 11.7307 5.97711 1
    endloop
  endfacet
  facet normal -0.790155 0.612907 0
    outer loop
      vertex 11.7307 5.97711 16
      vertex 11.1724 5.25735 1
      vertex 11.1724 5.25735 16
    endloop
  endfacet
  facet normal -0.707107 0.707107 0
    outer loop
      vertex 9.92593 3.92995 1
      vertex 10.57 4.57407 16
      vertex 10.57 4.57407 1
    endloop
  endfacet
  facet normal -0.707107 0.707107 0
    outer loop
      vertex 10.57 4.57407 16
      vertex 9.92593 3.92995 1
      vertex 9.92593 3.92995 16
    endloop
  endfacet
  facet normal -0.94088 0.338739 0
    outer loop
      vertex 13.4818 9.16219 1
      vertex 13.7903 10.0193 16
      vertex 13.7903 10.0193 1
    endloop
  endfacet
  facet normal -0.94088 0.338739 0
    outer loop
      vertex 13.7903 10.0193 16
      vertex 13.4818 9.16219 1
      vertex 13.4818 9.16219 16
    endloop
  endfacet
  facet normal -0.987688 0.156434 0
    outer loop
      vertex 14.2432 11.783 1
      vertex 14.3857 12.6827 16
      vertex 14.3857 12.6827 1
    endloop
  endfacet
  facet normal -0.987688 0.156434 0
    outer loop
      vertex 14.3857 12.6827 16
      vertex 14.2432 11.783 1
      vertex 14.2432 11.783 16
    endloop
  endfacet
  facet normal 0.397147 0.917755 -0
    outer loop
      vertex -5.33781 1.01824 1
      vertex -6.1738 1.38001 16
      vertex -5.33781 1.01824 16
    endloop
  endfacet
  facet normal 0.397147 0.917755 0
    outer loop
      vertex -6.1738 1.38001 16
      vertex -5.33781 1.01824 1
      vertex -6.1738 1.38001 1
    endloop
  endfacet
  facet normal 0.661312 0.750111 -0
    outer loop
      vertex -9.24265 3.32756 1
      vertex -9.92593 3.92995 16
      vertex -9.24265 3.32756 16
    endloop
  endfacet
  facet normal 0.661312 0.750111 0
    outer loop
      vertex -9.92593 3.92995 16
      vertex -9.24265 3.32756 1
      vertex -9.92593 3.92995 1
    endloop
  endfacet
  facet normal 0.790155 0.612907 0
    outer loop
      vertex -11.1724 5.25735 16
      vertex -11.7307 5.97711 1
      vertex -11.7307 5.97711 16
    endloop
  endfacet
  facet normal 0.790155 0.612907 0
    outer loop
      vertex -11.7307 5.97711 1
      vertex -11.1724 5.25735 16
      vertex -11.1724 5.25735 1
    endloop
  endfacet
  facet normal 0.860742 0.509042 0
    outer loop
      vertex -12.2428 6.73051 16
      vertex -12.7064 7.51457 1
      vertex -12.7064 7.51457 16
    endloop
  endfacet
  facet normal 0.860742 0.509042 0
    outer loop
      vertex -12.7064 7.51457 1
      vertex -12.2428 6.73051 16
      vertex -12.2428 6.73051 1
    endloop
  endfacet
  facet normal 0.94088 0.338739 0
    outer loop
      vertex -13.4818 9.16219 16
      vertex -13.7903 10.0193 1
      vertex -13.7903 10.0193 16
    endloop
  endfacet
  facet normal 0.94088 0.338739 0
    outer loop
      vertex -13.7903 10.0193 1
      vertex -13.4818 9.16219 16
      vertex -13.4818 9.16219 1
    endloop
  endfacet
  facet normal 0.995562 0.0941078 0
    outer loop
      vertex -14.3857 12.6827 16
      vertex -14.4714 13.5895 1
      vertex -14.4714 13.5895 16
    endloop
  endfacet
  facet normal 0.995562 0.0941078 0
    outer loop
      vertex -14.4714 13.5895 1
      vertex -14.3857 12.6827 16
      vertex -14.3857 12.6827 1
    endloop
  endfacet
  facet normal 0.975917 0.218143 0
    outer loop
      vertex -14.0445 10.894 16
      vertex -14.2432 11.783 1
      vertex -14.2432 11.783 16
    endloop
  endfacet
  facet normal 0.975917 0.218143 0
    outer loop
      vertex -14.2432 11.783 1
      vertex -14.0445 10.894 16
      vertex -14.0445 10.894 1
    endloop
  endfacet
  facet normal -0.612907 0.790155 0
    outer loop
      vertex 9.24265 3.32756 1
      vertex 8.52289 2.76925 16
      vertex 9.24265 3.32756 16
    endloop
  endfacet
  facet normal -0.612907 0.790155 0
    outer loop
      vertex 8.52289 2.76925 16
      vertex 9.24265 3.32756 1
      vertex 8.52289 2.76925 1
    endloop
  endfacet
  facet normal -0.338739 0.94088 0
    outer loop
      vertex 5.33781 1.01824 1
      vertex 4.48075 0.70968 16
      vertex 5.33781 1.01824 16
    endloop
  endfacet
  facet normal -0.338739 0.94088 0
    outer loop
      vertex 4.48075 0.70968 16
      vertex 5.33781 1.01824 1
      vertex 4.48075 0.70968 1
    endloop
  endfacet
  facet normal -0.218143 0.975917 0
    outer loop
      vertex 3.606 0.455544 1
      vertex 2.71703 0.256834 16
      vertex 3.606 0.455544 16
    endloop
  endfacet
  facet normal -0.218143 0.975917 0
    outer loop
      vertex 2.71703 0.256834 16
      vertex 3.606 0.455544 1
      vertex 2.71703 0.256834 1
    endloop
  endfacet
  facet normal -0.827081 0.562083 0
    outer loop
      vertex 11.7307 5.97711 1
      vertex 12.2428 6.73051 16
      vertex 12.2428 6.73051 1
    endloop
  endfacet
  facet normal -0.827081 0.562083 0
    outer loop
      vertex 12.2428 6.73051 16
      vertex 11.7307 5.97711 1
      vertex 11.7307 5.97711 16
    endloop
  endfacet
  facet normal -0.750111 0.661312 0
    outer loop
      vertex 10.57 4.57407 1
      vertex 11.1724 5.25735 16
      vertex 11.1724 5.25735 1
    endloop
  endfacet
  facet normal -0.750111 0.661312 0
    outer loop
      vertex 11.1724 5.25735 16
      vertex 10.57 4.57407 1
      vertex 10.57 4.57407 16
    endloop
  endfacet
  facet normal -0.917755 0.397147 0
    outer loop
      vertex 13.12 8.3262 1
      vertex 13.4818 9.16219 16
      vertex 13.4818 9.16219 1
    endloop
  endfacet
  facet normal -0.917755 0.397147 0
    outer loop
      vertex 13.4818 9.16219 16
      vertex 13.12 8.3262 1
      vertex 13.12 8.3262 16
    endloop
  endfacet
  facet normal 0 0 -1
    outer loop
      vertex 14.5 16.575 14.95
      vertex 15.45 23.925 14.95
      vertex 15.45 16.575 14.95
    endloop
  endfacet
  facet normal -0 0 -1
    outer loop
      vertex 15.45 23.925 14.95
      vertex 14.5 16.575 14.95
      vertex 14.5 23.925 14.95
    endloop
  endfacet
  facet normal 0 -1 0
    outer loop
      vertex 10 23.925 1
      vertex 10 23.925 0
      vertex 14.5 23.925 1
    endloop
  endfacet
  facet normal 0 -1 0
    outer loop
      vertex 14.5 23.925 14.95
      vertex 15.45 23.925 7.36
      vertex 15.45 23.925 14.95
    endloop
  endfacet
  facet normal 0 -1 -0
    outer loop
      vertex 15.45 23.925 7.36
      vertex 14.5 23.925 1
      vertex 17.1 23.925 7.36
    endloop
  endfacet
  facet normal 0 -1 0
    outer loop
      vertex 14.5 23.925 1
      vertex 15.45 23.925 7.36
      vertex 14.5 23.925 14.95
    endloop
  endfacet
  facet normal 0 -1 0
    outer loop
      vertex 17.1 23.925 7.36
      vertex 20.4 23.925 14.95
      vertex 17.1 23.925 14.95
    endloop
  endfacet
  facet normal 0 -1 0
    outer loop
      vertex 20.4 23.925 0
      vertex 17.1 23.925 7.36
      vertex 14.5 23.925 1
    endloop
  endfacet
  facet normal 0 -1 0
    outer loop
      vertex 17.1 23.925 7.36
      vertex 20.4 23.925 0
      vertex 20.4 23.925 14.95
    endloop
  endfacet
  facet normal 0 -1 0
    outer loop
      vertex 20.4 23.925 0
      vertex 14.5 23.925 1
      vertex 10 23.925 0
    endloop
  endfacet
  facet normal 0 1 0
    outer loop
      vertex 20.4 16.575 14.95
      vertex 17.1 16.575 7.36
      vertex 17.1 16.575 14.95
    endloop
  endfacet
  facet normal 0 1 0
    outer loop
      vertex 17.1 16.575 7.36
      vertex 14.5 16.575 1
      vertex 15.45 16.575 7.36
    endloop
  endfacet
  facet normal 0 1 -0
    outer loop
      vertex 20.4 16.575 0
      vertex 17.1 16.575 7.36
      vertex 20.4 16.575 14.95
    endloop
  endfacet
  facet normal 0 1 0
    outer loop
      vertex 17.1 16.575 7.36
      vertex 20.4 16.575 0
      vertex 14.5 16.575 1
    endloop
  endfacet
  facet normal 0 1 0
    outer loop
      vertex 10 16.575 0
      vertex 14.5 16.575 1
      vertex 20.4 16.575 0
    endloop
  endfacet
  facet normal 0 1 0
    outer loop
      vertex 14.5 16.575 1
      vertex 10 16.575 0
      vertex 10 16.575 1
    endloop
  endfacet
  facet normal 0 1 -0
    outer loop
      vertex 15.45 16.575 7.36
      vertex 14.5 16.575 14.95
      vertex 15.45 16.575 14.95
    endloop
  endfacet
  facet normal 0 1 0
    outer loop
      vertex 14.5 16.575 14.95
      vertex 15.45 16.575 7.36
      vertex 14.5 16.575 1
    endloop
  endfacet
  facet normal 1 -0 0
    outer loop
      vertex 10 16.575 1
      vertex 10 23.925 0
      vertex 10 23.925 1
    endloop
  endfacet
  facet normal 1 0 0
    outer loop
      vertex 10 23.925 0
      vertex 10 16.575 1
      vertex 10 16.575 0
    endloop
  endfacet
  facet normal -1 0 0
    outer loop
      vertex 15.45 16.575 7.36
      vertex 15.45 23.925 14.95
      vertex 15.45 23.925 7.36
    endloop
  endfacet
  facet normal -1 -0 0
    outer loop
      vertex 15.45 23.925 14.95
      vertex 15.45 16.575 7.36
      vertex 15.45 16.575 14.95
    endloop
  endfacet
  facet normal 0 0 -1
    outer loop
      vertex 15.45 16.575 7.36
      vertex 17.1 23.925 7.36
      vertex 17.1 16.575 7.36
    endloop
  endfacet
  facet normal -0 0 -1
    outer loop
      vertex 17.1 23.925 7.36
      vertex 15.45 16.575 7.36
      vertex 15.45 23.925 7.36
    endloop
  endfacet
  facet normal 0 0 -1
    outer loop
      vertex 17.1 16.575 14.95
      vertex 20.4 23.925 14.95
      vertex 20.4 16.575 14.95
    endloop
  endfacet
  facet normal -0 0 -1
    outer loop
      vertex 20.4 23.925 14.95
      vertex 17.1 16.575 14.95
      vertex 17.1 23.925 14.95
    endloop
  endfacet
  facet normal 1 -0 0
    outer loop
      vertex 17.1 16.575 14.95
      vertex 17.1 23.925 7.36
      vertex 17.1 23.925 14.95
    endloop
  endfacet
  facet normal 1 0 0
    outer loop
      vertex 17.1 23.925 7.36
      vertex 17.1 16.575 14.95
      vertex 17.1 16.575 7.36
    endloop
  endfacet
  facet normal -1 0 0
    outer loop
      vertex 20.4 16.575 0
      vertex 20.4 23.925 14.95
      vertex 20.4 23.925 0
    endloop
  endfacet
  facet normal -1 -0 0
    outer loop
      vertex 20.4 23.925 14.95
      vertex 20.4 16.575 0
      vertex 20.4 16.575 14.95
    endloop
  endfacet
  facet normal 0 0 -1
    outer loop
      vertex -15.45 16.575 14.95
      vertex -14.5 23.925 14.95
      vertex -14.5 16.575 14.95
    endloop
  endfacet
  facet normal -0 0 -1
    outer loop
      vertex -14.5 23.925 14.95
      vertex -15.45 16.575 14.95
      vertex -15.45 23.925 14.95
    endloop
  endfacet
  facet normal 0 1 0
    outer loop
      vertex -10 16.575 1
      vertex -10 16.575 0
      vertex -14.5 16.575 1
    endloop
  endfacet
  facet normal 0 1 0
    outer loop
      vertex -14.5 16.575 14.95
      vertex -15.45 16.575 7.36
      vertex -15.45 16.575 14.95
    endloop
  endfacet
  facet normal 0 1 0
    outer loop
      vertex -15.45 16.575 7.36
      vertex -14.5 16.575 1
      vertex -17.1 16.575 7.36
    endloop
  endfacet
  facet normal 0 1 -0
    outer loop
      vertex -14.5 16.575 1
      vertex -15.45 16.575 7.36
      vertex -14.5 16.575 14.95
    endloop
  endfacet
  facet normal 0 1 -0
    outer loop
      vertex -17.1 16.575 7.36
      vertex -20.4 16.575 14.95
      vertex -17.1 16.575 14.95
    endloop
  endfacet
  facet normal 0 1 0
    outer loop
      vertex -20.4 16.575 0
      vertex -17.1 16.575 7.36
      vertex -14.5 16.575 1
    endloop
  endfacet
  facet normal 0 1 0
    outer loop
      vertex -17.1 16.575 7.36
      vertex -20.4 16.575 0
      vertex -20.4 16.575 14.95
    endloop
  endfacet
  facet normal 0 1 0
    outer loop
      vertex -20.4 16.575 0
      vertex -14.5 16.575 1
      vertex -10 16.575 0
    endloop
  endfacet
  facet normal 0 -1 0
    outer loop
      vertex -20.4 23.925 14.95
      vertex -17.1 23.925 7.36
      vertex -17.1 23.925 14.95
    endloop
  endfacet
  facet normal 0 -1 0
    outer loop
      vertex -17.1 23.925 7.36
      vertex -14.5 23.925 1
      vertex -15.45 23.925 7.36
    endloop
  endfacet
  facet normal 0 -1 0
    outer loop
      vertex -20.4 23.925 0
      vertex -17.1 23.925 7.36
      vertex -20.4 23.925 14.95
    endloop
  endfacet
  facet normal 0 -1 -0
    outer loop
      vertex -17.1 23.925 7.36
      vertex -20.4 23.925 0
      vertex -14.5 23.925 1
    endloop
  endfacet
  facet normal 0 -1 0
    outer loop
      vertex -10 23.925 0
      vertex -14.5 23.925 1
      vertex -20.4 23.925 0
    endloop
  endfacet
  facet normal 0 -1 0
    outer loop
      vertex -14.5 23.925 1
      vertex -10 23.925 0
      vertex -10 23.925 1
    endloop
  endfacet
  facet normal 0 -1 0
    outer loop
      vertex -15.45 23.925 7.36
      vertex -14.5 23.925 14.95
      vertex -15.45 23.925 14.95
    endloop
  endfacet
  facet normal 0 -1 -0
    outer loop
      vertex -14.5 23.925 14.95
      vertex -15.45 23.925 7.36
      vertex -14.5 23.925 1
    endloop
  endfacet
  facet normal -1 0 0
    outer loop
      vertex -10 16.575 0
      vertex -10 23.925 1
      vertex -10 23.925 0
    endloop
  endfacet
  facet normal -1 -0 0
    outer loop
      vertex -10 23.925 1
      vertex -10 16.575 0
      vertex -10 16.575 1
    endloop
  endfacet
  facet normal 1 -0 0
    outer loop
      vertex -15.45 16.575 14.95
      vertex -15.45 23.925 7.36
      vertex -15.45 23.925 14.95
    endloop
  endfacet
  facet normal 1 0 0
    outer loop
      vertex -15.45 23.925 7.36
      vertex -15.45 16.575 14.95
      vertex -15.45 16.575 7.36
    endloop
  endfacet
  facet normal 0 0 -1
    outer loop
      vertex -17.1 16.575 7.36
      vertex -15.45 23.925 7.36
      vertex -15.45 16.575 7.36
    endloop
  endfacet
  facet normal -0 0 -1
    outer loop
      vertex -15.45 23.925 7.36
      vertex -17.1 16.575 7.36
      vertex -17.1 23.925 7.36
    endloop
  endfacet
  facet normal 0 0 -1
    outer loop
      vertex -20.4 16.575 14.95
      vertex -17.1 23.925 14.95
      vertex -17.1 16.575 14.95
    endloop
  endfacet
  facet normal -0 0 -1
    outer loop
      vertex -17.1 23.925 14.95
      vertex -20.4 16.575 14.95
      vertex -20.4 23.925 14.95
    endloop
  endfacet
  facet normal -1 0 0
    outer loop
      vertex -17.1 16.575 7.36
      vertex -17.1 23.925 14.95
      vertex -17.1 23.925 7.36
    endloop
  endfacet
  facet normal -1 -0 0
    outer loop
      vertex -17.1 23.925 14.95
      vertex -17.1 16.575 7.36
      vertex -17.1 16.575 14.95
    endloop
  endfacet
  facet normal 1 -0 0
    outer loop
      vertex -20.4 16.575 14.95
      vertex -20.4 23.925 0
      vertex -20.4 23.925 14.95
    endloop
  endfacet
  facet normal 1 0 0
    outer loop
      vertex -20.4 23.925 0
      vertex -20.4 16.575 14.95
      vertex -20.4 16.575 0
    endloop
  endfacet
  facet normal 0 0 -1
    outer loop
      vertex 22.5 -3 0
      vertex 20.4 16.575 0
      vertex 22.5 37 0
    endloop
  endfacet
  facet normal 0 0 -1
    outer loop
      vertex 22.5 -3 0
      vertex 10 16.575 0
      vertex 20.4 16.575 0
    endloop
  endfacet
  facet normal 0 0 -1
    outer loop
      vertex 10 16.575 0
      vertex -10 16.575 0
      vertex 10 23.925 0
    endloop
  endfacet
  facet normal 0 0 -1
    outer loop
      vertex 22.5 -3 0
      vertex -10 16.575 0
      vertex 10 16.575 0
    endloop
  endfacet
  facet normal 0 0 -1
    outer loop
      vertex -22.5 -3 0
      vertex -10 16.575 0
      vertex 22.5 -3 0
    endloop
  endfacet
  facet normal 0 0 -1
    outer loop
      vertex -22.5 37 0
      vertex -20.4 16.575 0
      vertex -22.5 -3 0
    endloop
  endfacet
  facet normal -0 0 -1
    outer loop
      vertex -10 16.575 0
      vertex -22.5 -3 0
      vertex -20.4 16.575 0
    endloop
  endfacet
  facet normal 0 0 -1
    outer loop
      vertex 20.4 23.925 0
      vertex 22.5 37 0
      vertex 20.4 16.575 0
    endloop
  endfacet
  facet normal 0 0 -1
    outer loop
      vertex 10 23.925 0
      vertex 22.5 37 0
      vertex 20.4 23.925 0
    endloop
  endfacet
  facet normal 0 0 -1
    outer loop
      vertex -10 23.925 0
      vertex 10 23.925 0
      vertex -10 16.575 0
    endloop
  endfacet
  facet normal 0 0 -1
    outer loop
      vertex 10 23.925 0
      vertex -10 23.925 0
      vertex 22.5 37 0
    endloop
  endfacet
  facet normal 0 0 -1
    outer loop
      vertex -22.5 37 0
      vertex -10 23.925 0
      vertex -20.4 23.925 0
    endloop
  endfacet
  facet normal 0 0 -1
    outer loop
      vertex -10 23.925 0
      vertex -22.5 37 0
      vertex 22.5 37 0
    endloop
  endfacet
  facet normal 0 0 -1
    outer loop
      vertex -20.4 16.575 0
      vertex -22.5 37 0
      vertex -20.4 23.925 0
    endloop
  endfacet
  facet normal 1 -0 0
    outer loop
      vertex 22.5 -3 16
      vertex 22.5 37 0
      vertex 22.5 37 16
    endloop
  endfacet
  facet normal 1 0 0
    outer loop
      vertex 22.5 37 0
      vertex 22.5 -3 16
      vertex 22.5 -3 0
    endloop
  endfacet
  facet normal -1 0 0
    outer loop
      vertex -22.5 -3 0
      vertex -22.5 37 16
      vertex -22.5 37 0
    endloop
  endfacet
  facet normal -1 -0 0
    outer loop
      vertex -22.5 37 16
      vertex -22.5 -3 0
      vertex -22.5 -3 16
    endloop
  endfacet
  facet normal 0 -1 0
    outer loop
      vertex -22.5 -3 0
      vertex 22.5 -3 16
      vertex -22.5 -3 16
    endloop
  endfacet
  facet normal 0 -1 -0
    outer loop
      vertex 22.5 -3 16
      vertex -22.5 -3 0
      vertex 22.5 -3 0
    endloop
  endfacet
  facet normal 0 1 -0
    outer loop
      vertex 22.5 37 0
      vertex -22.5 37 16
      vertex 22.5 37 16
    endloop
  endfacet
  facet normal 0 1 0
    outer loop
      vertex -22.5 37 16
      vertex 22.5 37 0
      vertex -22.5 37 0
    endloop
  endfacet
  facet normal 0 0 1
    outer loop
      vertex 14.5 14.5 16
      vertex 22.5 37 16
      vertex 14.5 34.22 16
    endloop
  endfacet
  facet normal 0 0 1
    outer loop
      vertex 22.5 37 16
      vertex -14.5 34.22 16
      vertex 14.5 34.22 16
    endloop
  endfacet
  facet normal 0 0 1
    outer loop
      vertex -14.5 34.22 16
      vertex -22.5 37 16
      vertex -14.5 14.5 16
    endloop
  endfacet
  facet normal -0 0 1
    outer loop
      vertex -22.5 37 16
      vertex -14.5 34.22 16
      vertex 22.5 37 16
    endloop
  endfacet
  facet normal 0 0 1
    outer loop
      vertex 22.5 37 16
      vertex 14.5 14.5 16
      vertex 22.5 -3 16
    endloop
  endfacet
  facet normal -0 0 1
    outer loop
      vertex 14.4714 13.5895 16
      vertex 22.5 -3 16
      vertex 14.5 14.5 16
    endloop
  endfacet
  facet normal -0 0 1
    outer loop
      vertex 14.3857 12.6827 16
      vertex 22.5 -3 16
      vertex 14.4714 13.5895 16
    endloop
  endfacet
  facet normal -0 0 1
    outer loop
      vertex 14.2432 11.783 16
      vertex 22.5 -3 16
      vertex 14.3857 12.6827 16
    endloop
  endfacet
  facet normal -0 0 1
    outer loop
      vertex 14.0445 10.894 16
      vertex 22.5 -3 16
      vertex 14.2432 11.783 16
    endloop
  endfacet
  facet normal -0 0 1
    outer loop
      vertex 13.7903 10.0193 16
      vertex 22.5 -3 16
      vertex 14.0445 10.894 16
    endloop
  endfacet
  facet normal -0 0 1
    outer loop
      vertex 13.4818 9.16219 16
      vertex 22.5 -3 16
      vertex 13.7903 10.0193 16
    endloop
  endfacet
  facet normal -0 0 1
    outer loop
      vertex 13.12 8.3262 16
      vertex 22.5 -3 16
      vertex 13.4818 9.16219 16
    endloop
  endfacet
  facet normal -0 0 1
    outer loop
      vertex 12.7064 7.51457 16
      vertex 22.5 -3 16
      vertex 13.12 8.3262 16
    endloop
  endfacet
  facet normal -0 0 1
    outer loop
      vertex 12.2428 6.73051 16
      vertex 22.5 -3 16
      vertex 12.7064 7.51457 16
    endloop
  endfacet
  facet normal -0 0 1
    outer loop
      vertex 11.7307 5.97711 16
      vertex 22.5 -3 16
      vertex 12.2428 6.73051 16
    endloop
  endfacet
  facet normal -0 0 1
    outer loop
      vertex 11.1724 5.25735 16
      vertex 22.5 -3 16
      vertex 11.7307 5.97711 16
    endloop
  endfacet
  facet normal -0 0 1
    outer loop
      vertex 10.57 4.57407 16
      vertex 22.5 -3 16
      vertex 11.1724 5.25735 16
    endloop
  endfacet
  facet normal -0 0 1
    outer loop
      vertex 9.92593 3.92995 16
      vertex 22.5 -3 16
      vertex 10.57 4.57407 16
    endloop
  endfacet
  facet normal -0 0 1
    outer loop
      vertex 9.24265 3.32756 16
      vertex 22.5 -3 16
      vertex 9.92593 3.92995 16
    endloop
  endfacet
  facet normal -0 0 1
    outer loop
      vertex 8.52289 2.76925 16
      vertex 22.5 -3 16
      vertex 9.24265 3.32756 16
    endloop
  endfacet
  facet normal -0 0 1
    outer loop
      vertex 7.76949 2.25725 16
      vertex 22.5 -3 16
      vertex 8.52289 2.76925 16
    endloop
  endfacet
  facet normal -0 0 1
    outer loop
      vertex 6.98543 1.79355 16
      vertex 22.5 -3 16
      vertex 7.76949 2.25725 16
    endloop
  endfacet
  facet normal -0 0 1
    outer loop
      vertex 6.1738 1.38001 16
      vertex 22.5 -3 16
      vertex 6.98543 1.79355 16
    endloop
  endfacet
  facet normal -0 0 1
    outer loop
      vertex 5.33781 1.01824 16
      vertex 22.5 -3 16
      vertex 6.1738 1.38001 16
    endloop
  endfacet
  facet normal -0 0 1
    outer loop
      vertex 4.48075 0.70968 16
      vertex 22.5 -3 16
      vertex 5.33781 1.01824 16
    endloop
  endfacet
  facet normal -0 0 1
    outer loop
      vertex 3.606 0.455544 16
      vertex 22.5 -3 16
      vertex 4.48075 0.70968 16
    endloop
  endfacet
  facet normal -0 0 1
    outer loop
      vertex 2.71703 0.256834 16
      vertex 22.5 -3 16
      vertex 3.606 0.455544 16
    endloop
  endfacet
  facet normal -0 0 1
    outer loop
      vertex 1.81733 0.114336 16
      vertex 22.5 -3 16
      vertex 2.71703 0.256834 16
    endloop
  endfacet
  facet normal -0 0 1
    outer loop
      vertex 0.910462 0.0286121 16
      vertex 22.5 -3 16
      vertex 1.81733 0.114336 16
    endloop
  endfacet
  facet normal -0 0 1
    outer loop
      vertex 4.62289e-015 0 16
      vertex 22.5 -3 16
      vertex 0.910462 0.0286121 16
    endloop
  endfacet
  facet normal 0 0 1
    outer loop
      vertex -22.5 -3 16
      vertex 4.62289e-015 0 16
      vertex -0.910462 0.0286121 16
    endloop
  endfacet
  facet normal 0 0 1
    outer loop
      vertex -22.5 -3 16
      vertex -0.910462 0.0286121 16
      vertex -1.81733 0.114336 16
    endloop
  endfacet
  facet normal 0 0 1
    outer loop
      vertex -22.5 -3 16
      vertex -14.5 14.5 16
      vertex -22.5 37 16
    endloop
  endfacet
  facet normal 0 0 1
    outer loop
      vertex -14.5 14.5 16
      vertex -22.5 -3 16
      vertex -14.4714 13.5895 16
    endloop
  endfacet
  facet normal 0 0 1
    outer loop
      vertex -14.4714 13.5895 16
      vertex -22.5 -3 16
      vertex -14.3857 12.6827 16
    endloop
  endfacet
  facet normal 0 0 1
    outer loop
      vertex -14.3857 12.6827 16
      vertex -22.5 -3 16
      vertex -14.2432 11.783 16
    endloop
  endfacet
  facet normal 0 0 1
    outer loop
      vertex -14.2432 11.783 16
      vertex -22.5 -3 16
      vertex -14.0445 10.894 16
    endloop
  endfacet
  facet normal 0 0 1
    outer loop
      vertex 4.62289e-015 0 16
      vertex -22.5 -3 16
      vertex 22.5 -3 16
    endloop
  endfacet
  facet normal 0 0 1
    outer loop
      vertex -2.71703 0.256834 16
      vertex -22.5 -3 16
      vertex -1.81733 0.114336 16
    endloop
  endfacet
  facet normal 0 0 1
    outer loop
      vertex -3.606 0.455544 16
      vertex -22.5 -3 16
      vertex -2.71703 0.256834 16
    endloop
  endfacet
  facet normal 0 0 1
    outer loop
      vertex -4.48075 0.70968 16
      vertex -22.5 -3 16
      vertex -3.606 0.455544 16
    endloop
  endfacet
  facet normal 0 0 1
    outer loop
      vertex -5.33781 1.01824 16
      vertex -22.5 -3 16
      vertex -4.48075 0.70968 16
    endloop
  endfacet
  facet normal 0 0 1
    outer loop
      vertex -6.1738 1.38001 16
      vertex -22.5 -3 16
      vertex -5.33781 1.01824 16
    endloop
  endfacet
  facet normal 0 0 1
    outer loop
      vertex -6.98543 1.79355 16
      vertex -22.5 -3 16
      vertex -6.1738 1.38001 16
    endloop
  endfacet
  facet normal 0 0 1
    outer loop
      vertex -7.76949 2.25725 16
      vertex -22.5 -3 16
      vertex -6.98543 1.79355 16
    endloop
  endfacet
  facet normal 0 0 1
    outer loop
      vertex -8.52289 2.76925 16
      vertex -22.5 -3 16
      vertex -7.76949 2.25725 16
    endloop
  endfacet
  facet normal 0 0 1
    outer loop
      vertex -9.24265 3.32756 16
      vertex -22.5 -3 16
      vertex -8.52289 2.76925 16
    endloop
  endfacet
  facet normal 0 0 1
    outer loop
      vertex -9.92593 3.92995 16
      vertex -22.5 -3 16
      vertex -9.24265 3.32756 16
    endloop
  endfacet
  facet normal 0 0 1
    outer loop
      vertex -10.57 4.57407 16
      vertex -22.5 -3 16
      vertex -9.92593 3.92995 16
    endloop
  endfacet
  facet normal 0 0 1
    outer loop
      vertex -11.1724 5.25735 16
      vertex -22.5 -3 16
      vertex -10.57 4.57407 16
    endloop
  endfacet
  facet normal 0 0 1
    outer loop
      vertex -11.7307 5.97711 16
      vertex -22.5 -3 16
      vertex -11.1724 5.25735 16
    endloop
  endfacet
  facet normal 0 0 1
    outer loop
      vertex -12.2428 6.73051 16
      vertex -22.5 -3 16
      vertex -11.7307 5.97711 16
    endloop
  endfacet
  facet normal 0 0 1
    outer loop
      vertex -12.7064 7.51457 16
      vertex -22.5 -3 16
      vertex -12.2428 6.73051 16
    endloop
  endfacet
  facet normal 0 0 1
    outer loop
      vertex -13.12 8.3262 16
      vertex -22.5 -3 16
      vertex -12.7064 7.51457 16
    endloop
  endfacet
  facet normal 0 0 1
    outer loop
      vertex -13.4818 9.16219 16
      vertex -22.5 -3 16
      vertex -13.12 8.3262 16
    endloop
  endfacet
  facet normal 0 0 1
    outer loop
      vertex -13.7903 10.0193 16
      vertex -22.5 -3 16
      vertex -13.4818 9.16219 16
    endloop
  endfacet
  facet normal 0 0 1
    outer loop
      vertex -14.0445 10.894 16
      vertex -22.5 -3 16
      vertex -13.7903 10.0193 16
    endloop
  endfacet
endsolid OpenSCAD_Model
